<svg width="62" height="32" viewBox="0 0 62 32" fill="none" xmlns="http://www.w3.org/2000/svg">
<path d="M6.82609 31.0834C6.58609 31.0834 6.33276 31.0701 6.06609 31.0434C5.82609 31.0434 5.58609 31.0301 5.34609 31.0034C4.83943 30.9501 4.33276 30.8034 3.82609 30.5634C3.34609 30.3501 2.86609 30.0568 2.38609 29.6834C1.34609 28.8301 0.826094 27.9101 0.826094 26.9234C0.826094 25.9368 1.30609 25.1901 2.26609 24.6834C3.01276 24.2568 3.93276 24.0434 5.02609 24.0434C6.51943 24.0434 8.59943 24.5901 11.2661 25.6834C12.5461 24.1634 13.7061 22.2434 14.7461 19.9234C11.1194 21.5234 9.22609 22.3234 9.06609 22.3234C8.77276 22.3234 8.62609 22.0034 8.62609 21.3634C8.62609 21.1501 8.66609 21.0301 8.74609 21.0034C9.03943 20.8968 9.38609 20.7634 9.78609 20.6034C10.1861 20.4168 10.6528 20.2168 11.1861 20.0034C12.1461 19.5501 13.5861 18.9101 15.5061 18.0834C16.3061 16.0301 16.9461 13.9368 17.4261 11.8034C17.9061 9.64344 18.2394 7.4701 18.4261 5.28344C13.3061 5.5501 9.43943 7.05677 6.82609 9.80344C5.86609 10.8434 5.38609 11.9501 5.38609 13.1234C5.38609 15.1768 6.49276 16.6968 8.70609 17.6834C8.91943 17.7901 9.17276 17.8834 9.46609 17.9634C9.75943 18.0168 10.1061 18.0968 10.5061 18.2034C10.6394 18.2568 10.7061 18.3101 10.7061 18.3634C10.7061 18.4968 10.6128 18.5634 10.4261 18.5634L10.3461 18.5234C8.77276 18.3901 7.35943 17.7768 6.10609 16.6834C4.71943 15.4834 4.02609 14.1234 4.02609 12.6034C4.02609 11.4301 4.49276 10.3634 5.42609 9.40344C8.25276 6.41677 12.5994 4.8301 18.4661 4.64344C18.4928 4.2701 18.5061 3.9101 18.5061 3.56344C18.5328 3.21677 18.5461 2.8701 18.5461 2.52344C18.5461 2.3901 18.5461 2.24344 18.5461 2.08344C18.5461 1.89677 18.5328 1.6701 18.5061 1.40344C18.4794 1.16344 18.4661 0.950102 18.4661 0.763436C18.4661 0.576769 18.4661 0.430103 18.4661 0.323437C18.4661 0.13677 18.5194 0.0434361 18.6261 0.0434361C18.6528 0.0434361 18.6928 0.110103 18.7461 0.243436C18.9328 1.3901 19.0128 2.85677 18.9861 4.64344C21.0128 4.61677 22.9728 4.80344 24.8661 5.20344C26.7594 2.7501 28.6928 1.52344 30.6661 1.52344C31.1194 1.52344 31.5328 1.57677 31.9061 1.68344C32.3061 1.7901 32.6794 1.9501 33.0261 2.16344C33.6928 2.61677 34.1728 3.2301 34.4661 4.00344C34.5728 4.32344 34.6261 4.6301 34.6261 4.92344C34.6261 5.0301 34.5994 5.08344 34.5461 5.08344C34.4128 5.08344 34.3061 4.9101 34.2261 4.56344C34.0661 4.00344 33.6261 3.52344 32.9061 3.12344C32.2128 2.77677 31.5594 2.60344 30.9461 2.60344C29.2928 2.60344 27.7594 3.53677 26.3461 5.40344C27.8661 5.64344 29.2661 6.0701 30.5461 6.68344C31.8528 7.2701 33.0261 8.0301 34.0661 8.96344C36.4394 11.0968 37.6261 13.6034 37.6261 16.4834C37.6261 18.3501 37.2128 20.1768 36.3861 21.9634C35.2128 24.4434 33.5061 26.3501 31.2661 27.6834C28.9728 29.0168 26.4261 29.6834 23.6261 29.6834C20.7994 29.6834 17.7461 29.0168 14.4661 27.6834C12.6794 29.9501 10.1328 31.0834 6.82609 31.0834ZM16.3461 17.7234C16.7194 17.5634 17.0794 17.4168 17.4261 17.2834C17.7994 17.1501 18.1461 17.0301 18.4661 16.9234C19.1594 15.3501 19.7328 14.0834 20.1861 13.1234C20.6394 12.1368 20.9594 11.4434 21.1461 11.0434C22.4528 8.45677 23.5728 6.6701 24.5061 5.68344C23.7594 5.5501 22.9861 5.44344 22.1861 5.36344C21.4128 5.28344 20.6128 5.24344 19.7861 5.24344H18.9461C18.7594 9.3501 17.8928 13.5101 16.3461 17.7234ZM23.2261 29.0434C26.7461 29.0434 29.6394 27.8968 31.9061 25.6034C34.1994 23.3101 35.3461 20.4168 35.3461 16.9234C35.3461 14.3101 34.4394 11.9368 32.6261 9.80344C30.8394 7.69677 28.6394 6.40344 26.0261 5.92344C25.5994 6.5901 25.1594 7.33677 24.7061 8.16344C24.2528 8.9901 23.7994 9.9101 23.3461 10.9234C22.9461 11.8034 22.5594 12.6834 22.1861 13.5634C21.8128 14.4168 21.4261 15.2701 21.0261 16.1234C23.4794 15.4834 25.3461 15.1634 26.6261 15.1634C26.8394 15.1634 26.9461 15.2701 26.9461 15.4834C26.9461 15.6434 26.8528 15.7234 26.6661 15.7234C26.4528 15.7768 26.1728 15.8434 25.8261 15.9234C25.5061 15.9768 25.1194 16.0701 24.6661 16.2034C23.9994 16.3368 23.3061 16.5234 22.5861 16.7634C21.8661 16.9768 21.1328 17.2301 20.3861 17.5234C19.8794 18.6701 19.4128 19.6701 18.9861 20.5234C18.5861 21.3501 18.2394 22.0301 17.9461 22.5634C16.9328 24.4301 15.9061 25.9634 14.8661 27.1634C16.3594 27.8034 17.7994 28.2701 19.1861 28.5634C20.5994 28.8834 21.9461 29.0434 23.2261 29.0434ZM13.2661 26.4834C14.3328 25.3368 15.8128 22.7234 17.7061 18.6434C17.4128 18.7501 17.0928 18.8834 16.7461 19.0434C16.4261 19.1768 16.0661 19.3368 15.6661 19.5234C15.1328 20.8301 14.5461 22.0168 13.9061 23.0834C13.2661 24.1501 12.5994 25.1101 11.9061 25.9634C12.1994 26.0701 12.4528 26.1768 12.6661 26.2834C12.9061 26.3634 13.1061 26.4301 13.2661 26.4834ZM6.10609 30.2034C7.35943 30.2034 8.62609 29.9234 9.90609 29.3634C11.3461 28.6968 12.3594 27.9234 12.9461 27.0434C12.4928 26.8034 12.0394 26.5768 11.5861 26.3634C9.66609 28.5234 7.66609 29.6034 5.58609 29.6034C5.07943 29.6034 4.82609 29.5101 4.82609 29.3234C4.82609 29.1901 5.05276 29.1234 5.50609 29.1234C7.34609 29.1234 9.17276 28.1101 10.9861 26.0834C8.50609 24.9634 6.43943 24.4034 4.78609 24.4034C4.35943 24.4034 3.95943 24.4568 3.58609 24.5634C3.23943 24.6434 2.91943 24.7501 2.62609 24.8834C1.85276 25.2834 1.46609 25.8701 1.46609 26.6434C1.46609 27.6568 1.99943 28.5234 3.06609 29.2434C4.02609 29.8834 5.03943 30.2034 6.10609 30.2034ZM39.1698 27.6834C38.8765 27.6834 38.7298 27.6034 38.7298 27.4434C38.7298 26.4834 39.1165 25.2568 39.8898 23.7634C40.8498 21.8968 41.4098 20.6834 41.5698 20.1234C41.8365 19.1634 41.9698 18.0301 41.9698 16.7234C41.9165 16.9901 41.7432 17.3901 41.4498 17.9234C41.1832 18.4301 40.8232 19.0701 40.3698 19.8434C39.9432 20.5901 39.5565 21.2168 39.2098 21.7234C38.8898 22.2034 38.6232 22.5901 38.4098 22.8834C38.4098 22.9101 38.3832 22.9234 38.3298 22.9234C38.1965 22.9234 38.1298 22.8701 38.1298 22.7634C38.1298 22.7634 38.2232 22.5901 38.4098 22.2434C38.6232 21.8968 38.9298 21.3901 39.3298 20.7234C40.6098 18.4834 41.4365 16.6034 41.8098 15.0834C41.9698 14.3901 42.2898 14.0434 42.7698 14.0434C43.2498 14.0434 43.4898 14.6034 43.4898 15.7234C43.4898 16.3101 43.4098 17.0434 43.2498 17.9234C43.0898 18.8034 42.8232 19.8168 42.4498 20.9634C42.1832 21.8434 41.9032 22.7234 41.6098 23.6034C41.3432 24.4834 41.0632 25.3501 40.7698 26.2034C41.7565 25.4568 42.7032 24.6034 43.6098 23.6434C44.5432 22.6834 45.3832 21.5768 46.1298 20.3234L46.3698 19.9234C46.5032 18.9634 46.6632 18.1768 46.8498 17.5634C47.0632 16.9501 47.2632 16.5101 47.4498 16.2434C47.6098 16.0568 47.8498 15.9634 48.1698 15.9634C48.7298 15.9634 49.0098 16.1101 49.0098 16.4034C49.0098 17.2034 48.7565 17.9368 48.2498 18.6034C47.6632 20.6034 47.3698 22.5501 47.3698 24.4434C47.3698 25.7234 47.7698 26.3634 48.5698 26.3634C48.9698 26.3634 49.4365 26.1368 49.9698 25.6834C50.5032 25.2301 50.7565 25.0034 50.7298 25.0034C50.8098 25.0034 50.8498 25.0834 50.8498 25.2434V25.3234C49.9432 26.6034 48.9298 27.2434 47.8098 27.2434C46.6632 27.2434 46.0898 26.2568 46.0898 24.2834C46.0898 23.8034 46.1032 23.2834 46.1298 22.7234C46.1832 22.1634 46.2365 21.5501 46.2898 20.8834C45.2765 22.8034 43.6098 24.6701 41.2898 26.4834C41.1565 26.5901 40.9698 26.7368 40.7298 26.9234C40.4898 27.1101 40.2232 27.3101 39.9298 27.5234C39.7965 27.6301 39.5432 27.6834 39.1698 27.6834ZM49.2498 17.6434C48.8765 17.6434 48.5432 17.5501 48.2498 17.3634C47.7965 17.0701 47.5565 16.7768 47.5298 16.4834C47.5032 16.2168 47.5565 16.0834 47.6898 16.0834C47.7165 16.0834 47.8765 16.2434 48.1698 16.5634C48.4898 16.9368 48.8498 17.0968 49.2498 17.0434C49.7832 16.9901 50.2365 16.8301 50.6098 16.5634C50.9832 16.2701 51.1698 15.7501 51.1698 15.0034C51.1698 14.8968 51.1698 14.7901 51.1698 14.6834C51.1698 14.5768 51.1565 14.4701 51.1298 14.3634C51.1032 14.2301 51.0898 14.1101 51.0898 14.0034C51.0898 13.8701 51.0898 13.7501 51.0898 13.6434C51.0898 13.1634 51.1565 12.9234 51.2898 12.9234C51.3965 12.9234 51.5565 13.0434 51.7698 13.2834C51.9832 13.4968 52.1432 13.8568 52.2498 14.3634C52.3032 14.4701 52.3298 14.5768 52.3298 14.6834C52.3298 14.7901 52.3298 14.9101 52.3298 15.0434C52.3298 15.5234 52.1565 15.9634 51.8098 16.3634C51.4898 16.7368 51.0898 17.0434 50.6098 17.2834C50.1565 17.5234 49.7032 17.6434 49.2498 17.6434ZM44.8498 12.1234C44.8498 12.0968 44.8365 12.0834 44.8098 12.0834C44.8098 12.0568 44.8098 12.0301 44.8098 12.0034C44.8098 11.9501 44.8365 11.8834 44.8898 11.8034C44.9432 11.6968 45.1032 11.5501 45.3698 11.3634C45.5832 11.2301 45.9298 11.0168 46.4098 10.7234C46.8898 10.4034 47.3965 10.0834 47.9298 9.76344C48.4898 9.44344 48.9832 9.17677 49.4098 8.96344C49.8365 8.7501 50.0765 8.6701 50.1298 8.72344C50.5032 8.9901 50.6632 9.2701 50.6098 9.56344C50.5298 9.80344 50.2365 10.0301 49.7298 10.2434C49.3832 10.3501 49.0098 10.4968 48.6098 10.6834C48.2098 10.8434 47.8765 10.9901 47.6098 11.1234C47.3698 11.2301 47.0498 11.3634 46.6498 11.5234C46.0632 11.7901 45.6365 11.9634 45.3698 12.0434C45.1298 12.1234 44.9565 12.1501 44.8498 12.1234ZM58.7648 19.4434C58.4182 19.4434 58.2448 19.2434 58.2448 18.8434C58.2448 18.6834 58.3248 18.3234 58.4848 17.7634C58.6715 17.2034 58.7648 16.7368 58.7648 16.3634C58.7648 15.1634 58.2848 14.5634 57.3248 14.5634C56.8448 14.5634 56.2315 14.7501 55.4848 15.1234C54.7648 15.5234 54.3782 15.7234 54.3248 15.7234C54.2182 15.7234 54.1648 15.6834 54.1648 15.6034C54.1648 15.2301 54.6848 14.8834 55.7248 14.5634C56.5248 14.2968 57.2048 14.1634 57.7648 14.1634C59.2048 14.1634 59.9248 15.0301 59.9248 16.7634C59.9248 17.2434 59.8315 17.7634 59.6448 18.3234C59.4048 19.0701 59.1115 19.4434 58.7648 19.4434ZM52.6048 28.6434C50.7648 28.6434 49.8448 27.6034 49.8448 25.5234C49.8448 23.4434 50.5248 21.3101 51.8848 19.1234C53.4582 16.6434 55.2048 15.4034 57.1248 15.4034C57.4182 15.4034 57.5648 15.4568 57.5648 15.5634C57.5648 15.6434 57.2982 15.8434 56.7648 16.1634C55.4582 16.9634 54.2982 18.1768 53.2848 19.8034C52.1915 21.5368 51.6448 23.0968 51.6448 24.4834C51.6448 26.6434 52.4582 27.7234 54.0848 27.7234C55.0982 27.7234 56.2182 27.3234 57.4448 26.5234C57.9782 26.1768 58.4715 25.8168 58.9248 25.4434C59.4048 25.0434 59.8315 24.6168 60.2048 24.1634C60.3382 24.0034 60.4982 23.8034 60.6848 23.5634C60.8715 23.3234 61.0715 23.0301 61.2848 22.6834C61.5248 22.2834 61.7115 22.0834 61.8448 22.0834C61.8448 22.0834 61.8715 22.1101 61.9248 22.1634C61.9248 22.2434 61.8048 22.4701 61.5648 22.8434C61.1115 23.5368 60.5648 24.2168 59.9248 24.8834C59.2848 25.5234 58.5382 26.1368 57.6848 26.7234C55.8182 28.0034 54.1248 28.6434 52.6048 28.6434Z" fill="black"/>
</svg>
