<svg width="76" height="76" viewBox="0 0 76 76" fill="none" xmlns="http://www.w3.org/2000/svg">
<g filter="url(#filter0_dd_3624_19899)">
<path d="M13 6.41026C13 2.86997 15.87 0 19.4103 0H56.5897C60.13 0 63 2.86997 63 6.41026V43.5897C63 47.13 60.13 50 56.5897 50H19.4103C15.87 50 13 47.13 13 43.5897V6.41026Z" fill="white" shape-rendering="crispEdges"/>
<path d="M32.872 27.5641C32.872 27.5641 34.7951 30.1282 38.0002 30.1282C41.2053 30.1282 43.1284 27.5641 43.1284 27.5641M44.4105 21.4615C43.904 22.0833 43.2117 22.4359 42.4874 22.4359C41.763 22.4359 41.0899 22.0833 40.5643 21.4615M35.4361 21.4615C34.9297 22.0833 34.2374 22.4359 33.513 22.4359C32.7887 22.4359 32.1156 22.0833 31.5899 21.4615M50.8207 25C50.8207 32.0805 45.0808 37.8205 38.0002 37.8205C30.9196 37.8205 25.1797 32.0805 25.1797 25C25.1797 17.9194 30.9196 12.1794 38.0002 12.1794C45.0808 12.1794 50.8207 17.9194 50.8207 25Z" stroke="#3F8BB8" stroke-width="1.60256" stroke-linecap="round" stroke-linejoin="round"/>
</g>
<defs>
<filter id="filter0_dd_3624_19899" x="0.179487" y="-4.76837e-07" width="75.641" height="75.641" filterUnits="userSpaceOnUse" color-interpolation-filters="sRGB">
<feFlood flood-opacity="0" result="BackgroundImageFix"/>
<feColorMatrix in="SourceAlpha" type="matrix" values="0 0 0 0 0 0 0 0 0 0 0 0 0 0 0 0 0 0 127 0" result="hardAlpha"/>
<feMorphology radius="2.5641" operator="erode" in="SourceAlpha" result="effect1_dropShadow_3624_19899"/>
<feOffset dy="5.12821"/>
<feGaussianBlur stdDeviation="2.5641"/>
<feComposite in2="hardAlpha" operator="out"/>
<feColorMatrix type="matrix" values="0 0 0 0 0.0627451 0 0 0 0 0.0941176 0 0 0 0 0.156863 0 0 0 0.03 0"/>
<feBlend mode="normal" in2="BackgroundImageFix" result="effect1_dropShadow_3624_19899"/>
<feColorMatrix in="SourceAlpha" type="matrix" values="0 0 0 0 0 0 0 0 0 0 0 0 0 0 0 0 0 0 127 0" result="hardAlpha"/>
<feMorphology radius="2.5641" operator="erode" in="SourceAlpha" result="effect2_dropShadow_3624_19899"/>
<feOffset dy="12.8205"/>
<feGaussianBlur stdDeviation="7.69231"/>
<feComposite in2="hardAlpha" operator="out"/>
<feColorMatrix type="matrix" values="0 0 0 0 0.0627451 0 0 0 0 0.0941176 0 0 0 0 0.156863 0 0 0 0.08 0"/>
<feBlend mode="normal" in2="effect1_dropShadow_3624_19899" result="effect2_dropShadow_3624_19899"/>
<feBlend mode="normal" in="SourceGraphic" in2="effect2_dropShadow_3624_19899" result="shape"/>
</filter>
</defs>
</svg>
