<svg width="76" height="76" viewBox="0 0 76 76" fill="none" xmlns="http://www.w3.org/2000/svg">
<g filter="url(#filter0_dd_3624_19893)">
<path d="M13 6.41026C13 2.86997 15.87 0 19.4103 0H56.5897C60.13 0 63 2.86997 63 6.41026V43.5897C63 47.13 60.13 50 56.5897 50H19.4103C15.87 50 13 47.13 13 43.5897V6.41026Z" fill="white" shape-rendering="crispEdges"/>
<path d="M36.7181 23.718H30.5643C29.1283 23.718 28.4103 23.718 27.8618 23.9974C27.3793 24.2433 26.987 24.6355 26.7412 25.118C26.4617 25.6665 26.4617 26.3845 26.4617 27.8205V36.5385M49.5387 36.5385V17.5641C49.5387 16.1281 49.5387 15.4101 49.2592 14.8616C49.0134 14.3791 48.6211 13.9868 48.1386 13.741C47.5901 13.4615 46.8721 13.4615 45.4361 13.4615H40.8207C39.3847 13.4615 38.6667 13.4615 38.1182 13.741C37.6357 13.9868 37.2434 14.3791 36.9976 14.8616C36.7181 15.4101 36.7181 16.1281 36.7181 17.5641V36.5385M50.8207 36.5385H25.1797M41.2053 18.5898H45.0515M41.2053 23.718H45.0515M41.2053 28.8462H45.0515" stroke="#3F8BB8" stroke-width="1.60256" stroke-linecap="round" stroke-linejoin="round"/>
</g>
<defs>
<filter id="filter0_dd_3624_19893" x="0.179487" y="-4.76837e-07" width="75.641" height="75.641" filterUnits="userSpaceOnUse" color-interpolation-filters="sRGB">
<feFlood flood-opacity="0" result="BackgroundImageFix"/>
<feColorMatrix in="SourceAlpha" type="matrix" values="0 0 0 0 0 0 0 0 0 0 0 0 0 0 0 0 0 0 127 0" result="hardAlpha"/>
<feMorphology radius="2.5641" operator="erode" in="SourceAlpha" result="effect1_dropShadow_3624_19893"/>
<feOffset dy="5.12821"/>
<feGaussianBlur stdDeviation="2.5641"/>
<feComposite in2="hardAlpha" operator="out"/>
<feColorMatrix type="matrix" values="0 0 0 0 0.0627451 0 0 0 0 0.0941176 0 0 0 0 0.156863 0 0 0 0.03 0"/>
<feBlend mode="normal" in2="BackgroundImageFix" result="effect1_dropShadow_3624_19893"/>
<feColorMatrix in="SourceAlpha" type="matrix" values="0 0 0 0 0 0 0 0 0 0 0 0 0 0 0 0 0 0 127 0" result="hardAlpha"/>
<feMorphology radius="2.5641" operator="erode" in="SourceAlpha" result="effect2_dropShadow_3624_19893"/>
<feOffset dy="12.8205"/>
<feGaussianBlur stdDeviation="7.69231"/>
<feComposite in2="hardAlpha" operator="out"/>
<feColorMatrix type="matrix" values="0 0 0 0 0.0627451 0 0 0 0 0.0941176 0 0 0 0 0.156863 0 0 0 0.08 0"/>
<feBlend mode="normal" in2="effect1_dropShadow_3624_19893" result="effect2_dropShadow_3624_19893"/>
<feBlend mode="normal" in="SourceGraphic" in2="effect2_dropShadow_3624_19893" result="shape"/>
</filter>
</defs>
</svg>
