<svg width="76" height="76" viewBox="0 0 76 76" fill="none" xmlns="http://www.w3.org/2000/svg">
<g filter="url(#filter0_dd_3624_19887)">
<path d="M13 6.41026C13 2.86997 15.87 0 19.4103 0H56.5897C60.13 0 63 2.86997 63 6.41026V43.5897C63 47.13 60.13 50 56.5897 50H19.4103C15.87 50 13 47.13 13 43.5897V6.41026Z" fill="white" shape-rendering="crispEdges"/>
<path d="M35.4358 35.5942C31.477 34.6394 28.3609 31.5231 27.4061 27.5642M48.5945 27.5643C47.6397 31.5231 44.5236 34.6393 40.5648 35.5941M40.5646 14.4061C44.5235 15.3608 47.6397 18.477 48.5945 22.436M27.4064 22.4361C28.3611 18.4771 31.4774 15.3608 35.4364 14.4061M27.231 27.5643H28.2566C28.9746 27.5643 29.3336 27.5643 29.6079 27.4246C29.8491 27.3017 30.0452 27.1055 30.1682 26.8643C30.3079 26.59 30.3079 26.231 30.3079 25.513V24.4874C30.3079 23.7694 30.3079 23.4104 30.1682 23.1361C30.0452 22.8949 29.8491 22.6987 29.6079 22.5758C29.3336 22.4361 28.9746 22.4361 28.2566 22.4361H27.231C26.513 22.4361 26.1539 22.4361 25.8797 22.5758C25.6385 22.6987 25.4423 22.8949 25.3194 23.1361C25.1797 23.4104 25.1797 23.7694 25.1797 24.4874V25.513C25.1797 26.231 25.1797 26.59 25.3194 26.8643C25.4423 27.1055 25.6385 27.3017 25.8797 27.4246C26.1539 27.5643 26.513 27.5643 27.231 27.5643ZM47.7438 27.5643H48.7694C49.4874 27.5643 49.8465 27.5643 50.1207 27.4246C50.3619 27.3017 50.5581 27.1055 50.681 26.8643C50.8207 26.59 50.8207 26.231 50.8207 25.513V24.4874C50.8207 23.7694 50.8207 23.4104 50.681 23.1361C50.5581 22.8949 50.3619 22.6987 50.1207 22.5758C49.8465 22.4361 49.4874 22.4361 48.7694 22.4361H47.7438C47.0258 22.4361 46.6668 22.4361 46.3925 22.5758C46.1513 22.6987 45.9552 22.8949 45.8322 23.1361C45.6925 23.4104 45.6925 23.7694 45.6925 24.4874V25.513C45.6925 26.231 45.6925 26.59 45.8322 26.8643C45.9552 27.1055 46.1513 27.3017 46.3925 27.4246C46.6668 27.5643 47.0258 27.5643 47.7438 27.5643ZM37.4874 17.3079H38.513C39.231 17.3079 39.59 17.3079 39.8643 17.1682C40.1055 17.0452 40.3017 16.8491 40.4246 16.6079C40.5643 16.3336 40.5643 15.9746 40.5643 15.2566V14.231C40.5643 13.513 40.5643 13.1539 40.4246 12.8797C40.3017 12.6385 40.1055 12.4423 39.8643 12.3194C39.59 12.1797 39.231 12.1797 38.513 12.1797H37.4874C36.7694 12.1797 36.4104 12.1797 36.1361 12.3194C35.8949 12.4423 35.6987 12.6385 35.5758 12.8797C35.4361 13.1539 35.4361 13.513 35.4361 14.231V15.2566C35.4361 15.9746 35.4361 16.3336 35.5758 16.6079C35.6987 16.8491 35.8949 17.0452 36.1361 17.1682C36.4104 17.3079 36.7694 17.3079 37.4874 17.3079ZM37.4874 37.8207H38.513C39.231 37.8207 39.59 37.8207 39.8643 37.681C40.1055 37.5581 40.3017 37.3619 40.4246 37.1207C40.5643 36.8465 40.5643 36.4874 40.5643 35.7694V34.7438C40.5643 34.0258 40.5643 33.6668 40.4246 33.3925C40.3017 33.1513 40.1055 32.9552 39.8643 32.8322C39.59 32.6925 39.231 32.6925 38.513 32.6925H37.4874C36.7694 32.6925 36.4104 32.6925 36.1361 32.8322C35.8949 32.9552 35.6987 33.1513 35.5758 33.3925C35.4361 33.6668 35.4361 34.0258 35.4361 34.7438V35.7694C35.4361 36.4874 35.4361 36.8465 35.5758 37.1207C35.6987 37.3619 35.8949 37.5581 36.1361 37.681C36.4104 37.8207 36.7694 37.8207 37.4874 37.8207Z" stroke="#3F8BB8" stroke-width="1.60256" stroke-linecap="round" stroke-linejoin="round"/>
</g>
<defs>
<filter id="filter0_dd_3624_19887" x="0.179487" y="-4.76837e-07" width="75.641" height="75.641" filterUnits="userSpaceOnUse" color-interpolation-filters="sRGB">
<feFlood flood-opacity="0" result="BackgroundImageFix"/>
<feColorMatrix in="SourceAlpha" type="matrix" values="0 0 0 0 0 0 0 0 0 0 0 0 0 0 0 0 0 0 127 0" result="hardAlpha"/>
<feMorphology radius="2.5641" operator="erode" in="SourceAlpha" result="effect1_dropShadow_3624_19887"/>
<feOffset dy="5.12821"/>
<feGaussianBlur stdDeviation="2.5641"/>
<feComposite in2="hardAlpha" operator="out"/>
<feColorMatrix type="matrix" values="0 0 0 0 0.0627451 0 0 0 0 0.0941176 0 0 0 0 0.156863 0 0 0 0.03 0"/>
<feBlend mode="normal" in2="BackgroundImageFix" result="effect1_dropShadow_3624_19887"/>
<feColorMatrix in="SourceAlpha" type="matrix" values="0 0 0 0 0 0 0 0 0 0 0 0 0 0 0 0 0 0 127 0" result="hardAlpha"/>
<feMorphology radius="2.5641" operator="erode" in="SourceAlpha" result="effect2_dropShadow_3624_19887"/>
<feOffset dy="12.8205"/>
<feGaussianBlur stdDeviation="7.69231"/>
<feComposite in2="hardAlpha" operator="out"/>
<feColorMatrix type="matrix" values="0 0 0 0 0.0627451 0 0 0 0 0.0941176 0 0 0 0 0.156863 0 0 0 0.08 0"/>
<feBlend mode="normal" in2="effect1_dropShadow_3624_19887" result="effect2_dropShadow_3624_19887"/>
<feBlend mode="normal" in="SourceGraphic" in2="effect2_dropShadow_3624_19887" result="shape"/>
</filter>
</defs>
</svg>
