<svg width="235" height="90" viewBox="0 0 235 90" fill="none" xmlns="http://www.w3.org/2000/svg">
<g clip-path="url(#clip0_4480_12408)">
<path d="M70.6462 18.3471C70.2213 23.6468 66.914 28.3686 62.604 31.197C58.4367 33.9301 46.7098 38.7573 41.8389 40.0423C47.9097 37.8735 53.5046 34.4978 55.4285 33.1958C59.1471 30.6769 63.3688 28.2633 65.4626 24.2723C68.5932 18.6429 66.9854 11.1199 61.9479 7.20377C56.7711 2.98168 49.8608 4.14768 44.7757 7.99244C44.6873 8.05363 44.6024 8.11822 44.514 8.17941C40.1461 11.3885 37.6138 16.525 37.6138 21.9471V64.2191C37.5968 64.8616 37.4371 70.4944 36.4275 74.3018C36.4241 74.3154 36.4207 74.3256 36.4173 74.3392C36.4003 74.4038 36.3833 74.4718 36.3629 74.5363C36.3629 74.5397 36.3629 74.5431 36.3595 74.5431C36.3391 74.6213 36.3153 74.7029 36.2916 74.7777C36.2814 74.8185 36.2678 74.8559 36.2576 74.8933C36.2542 74.9001 36.2542 74.9069 36.2508 74.9137C36.244 74.9375 36.2372 74.9613 36.2304 74.9851C36.227 74.9919 36.2236 75.0021 36.2236 75.0089C36.2032 75.0701 36.1862 75.1312 36.1658 75.1924C36.1522 75.2298 36.142 75.2672 36.1318 75.3012C36.125 75.325 36.1182 75.3454 36.1114 75.3692L36.091 75.427C36.0672 75.5052 36.04 75.58 36.0162 75.6548C36.0026 75.6955 35.989 75.7363 35.9754 75.7737C35.9686 75.7941 35.9618 75.8145 35.955 75.8349C35.938 75.8859 35.9211 75.9369 35.9041 75.9811C35.8973 75.9981 35.8939 76.0117 35.8871 76.0253C35.8803 76.0423 35.8735 76.0593 35.8667 76.0763C35.8599 76.0967 35.8531 76.1137 35.8463 76.1341C35.8429 76.1443 35.8395 76.1579 35.8327 76.1681C35.8225 76.1987 35.8123 76.2293 35.7987 76.2565C35.7885 76.2837 35.7783 76.3109 35.7681 76.338C35.7579 76.3618 35.7477 76.389 35.7375 76.4128C35.7341 76.4196 35.7307 76.4264 35.7307 76.4298C35.7239 76.4468 35.7171 76.4638 35.7103 76.4808C35.6967 76.5182 35.6831 76.5522 35.6695 76.5862C35.6253 76.6984 35.5947 76.7732 35.5811 76.8072C35.5404 76.9024 35.503 76.9975 35.4622 77.0893L35.401 77.2253C35.3806 77.2695 35.3636 77.3137 35.3432 77.3579C35.3058 77.4463 35.265 77.5278 35.2276 77.6094C35.214 77.64 35.2004 77.6672 35.1868 77.6944C35.1767 77.7182 35.1631 77.742 35.1529 77.7658C35.1529 77.7692 35.1495 77.7726 35.1495 77.7726C35.1495 77.776 35.1495 77.776 35.1461 77.776C35.1461 77.7794 35.1461 77.7794 35.1427 77.7794C35.1291 77.8066 35.1189 77.8304 35.1053 77.8576C35.0917 77.8848 35.0781 77.912 35.0645 77.9358C35.0577 77.9494 35.0509 77.963 35.0441 77.9766C35.0407 77.9868 35.0339 77.997 35.0305 78.0072C35.0033 78.0616 34.9761 78.116 34.9489 78.1669C34.8605 78.3369 34.779 78.4933 34.7042 78.6259C34.3405 79.2854 33.9428 79.9244 33.5111 80.5397C33.3683 80.7403 33.2256 80.9409 33.076 81.1414C30.2072 84.9624 26.0943 87.8077 21.5395 89.2491C16.3219 90.9114 10.1287 89.7726 5.992 86.1114C-2.90003 78.3777 -1.66616 65.0825 8.08925 58.797C12.2531 56.0638 24.2791 51.3726 28.8543 49.9584C22.1751 52.9601 17.3722 55.5403 15.2647 56.7981C7.43662 61.4723 0.747196 68.7743 4.93149 77.9528C9.22115 86.5703 18.5551 87.5528 25.9175 82.0015C26.0059 81.9403 26.0909 81.8757 26.1792 81.8111C30.5471 78.6021 33.0794 73.4655 33.0794 68.0434V25.0202C33.11 23.5482 33.144 22.1273 33.3479 20.2984C33.4839 19.095 33.6063 18.0344 33.953 16.6406C34.2453 15.4644 34.5852 14.5058 34.8537 13.8259C34.8571 13.8191 34.8605 13.8123 34.8605 13.8055C35.0985 13.1664 35.3738 12.5341 35.6933 11.9052C36.1284 11.0655 36.6247 10.2497 37.1753 9.46099C37.3181 9.26043 37.4608 9.05986 37.6104 8.86269C42.1176 2.87629 49.8642 -1.14184 57.3184 0.282525C65.5442 1.80547 71.5198 10.1783 70.6462 18.3471Z" fill="white"/>
<path d="M56.7343 62.917C56.7343 62.917 46.7307 64.5793 43.9163 53.3952C43.8925 53.7181 43.8789 54.041 43.8789 54.3708C43.8789 61.4722 49.6336 67.2274 56.7343 67.2274C62.2986 67.2274 67.037 63.692 68.8283 58.7425C66.2586 44.8388 56.7343 45.8212 56.7343 45.8212C61.4556 45.8212 65.283 49.649 65.283 54.3708C65.283 59.0892 61.4556 62.917 56.7343 62.917Z" fill="white"/>
<mask id="mask0_4480_12408" style="mask-type:luminance" maskUnits="userSpaceOnUse" x="43" y="45" width="26" height="23">
<path d="M56.7343 62.917C56.7343 62.917 46.7307 64.5793 43.9163 53.3952C43.8925 53.7181 43.8789 54.041 43.8789 54.3708C43.8789 61.4722 49.6336 67.2274 56.7343 67.2274C62.2986 67.2274 67.037 63.692 68.8283 58.7425C66.2586 44.8388 56.7343 45.8212 56.7343 45.8212C61.4556 45.8212 65.283 49.649 65.283 54.3708C65.283 59.0892 61.4556 62.917 56.7343 62.917Z" fill="white"/>
</mask>
<g mask="url(#mask0_4480_12408)">
<path d="M68.8283 44.8384H43.8789V67.227H68.8283V44.8384Z" fill="white"/>
</g>
<path d="M48.1899 54.3703C48.1899 49.6485 52.0172 45.8208 56.7386 45.8208C56.7386 45.8208 66.2629 44.8383 68.8326 58.742C69.3255 57.3754 69.594 55.9035 69.594 54.3703C69.594 47.2689 63.8393 41.5137 56.7386 41.5137C50.3245 41.5137 45.0083 46.2117 44.043 52.3545C45.0083 54.9346 46.803 58.2049 49.9404 59.5477C48.8391 58.1097 48.1899 56.3148 48.1899 54.3703Z" fill="white"/>
<mask id="mask1_4480_12408" style="mask-type:luminance" maskUnits="userSpaceOnUse" x="44" y="41" width="26" height="19">
<path d="M48.1899 54.3703C48.1899 49.6485 52.0172 45.8208 56.7386 45.8208C56.7386 45.8208 66.2629 44.8383 68.8326 58.742C69.3255 57.3754 69.594 55.9035 69.594 54.3703C69.594 47.2689 63.8393 41.5137 56.7386 41.5137C50.3245 41.5137 45.0083 46.2117 44.043 52.3545C45.0083 54.9346 46.803 58.2049 49.9404 59.5477C48.8391 58.1097 48.1899 56.3148 48.1899 54.3703Z" fill="white"/>
</mask>
<g mask="url(#mask1_4480_12408)">
<path d="M69.5901 41.5137H44.0391V59.5477H69.5901V41.5137Z" fill="white"/>
</g>
<path d="M107.204 24.1398C108.336 24.1058 109.519 24.1738 110.719 24.3607C111.919 24.5647 112.932 25.0882 113.758 25.9653C114.584 26.8423 115.009 28.2973 115.009 30.3233C114.907 32.4514 114.149 34.1919 112.711 35.5585C111.26 36.9284 109.604 38.0265 107.711 38.8185C105.818 39.6276 104.166 40.2361 102.694 40.644L102.66 48.6327V49.3602H97.9316V24.1398H102.728H106.864C106.966 24.1398 107.085 24.1398 107.204 24.1398ZM102.66 39.7976C104.06 39.5936 105.277 39.0871 106.341 38.295C107.405 37.4995 108.265 36.5375 108.941 35.4055C109.618 34.2735 110.073 33.1075 110.325 31.8905C110.58 30.6735 110.597 29.5245 110.376 28.4774C110.155 27.4134 109.665 26.5534 108.941 25.8769C108.197 25.2004 107.184 24.8638 105.886 24.8638H102.66V39.7976Z" fill="white"/>
<path d="M130.223 24.4079C131.304 24.6118 132.215 25.0844 132.959 25.8084C133.721 26.5529 134.108 27.7019 134.125 29.2725C134.074 30.86 133.381 32.3116 132.049 33.6305C130.699 34.9325 129.142 35.9965 127.337 36.8396C129.163 36.6866 130.512 37.2101 131.359 38.3762C132.218 39.5252 132.844 41.0957 133.235 43.0538C133.49 44.9778 133.809 46.5518 134.248 47.7144C134.669 48.8974 134.486 49.4379 133.707 49.3529L130.176 49.3359C129.367 49.3189 128.959 48.2549 128.959 46.1609C128.942 44.0668 128.772 42.3603 128.452 41.0413C128.116 39.7223 127.725 38.7263 127.269 38.0362C126.831 37.3597 126.137 37.2101 125.227 37.5977C125.159 37.6487 125.091 37.6657 125.074 37.6827C125.04 37.6997 125.006 37.7167 124.972 37.7337C124.938 37.7507 124.887 37.7677 124.819 37.8016C124.751 37.8356 124.649 37.8866 124.516 37.9546C124.38 38.0226 124.18 38.1076 123.942 38.2096C123.704 38.3286 123.401 38.4645 123.048 38.6311C122.677 38.8181 122.222 39.0186 121.698 39.2736V48.6322V49.3427H116.953V24.1393H121.766H125.886C126.056 24.1393 126.205 24.1393 126.392 24.1393C126.613 24.1393 126.831 24.1393 127.086 24.1393C128.095 24.1223 129.142 24.2073 130.223 24.4079ZM121.691 38.4305C122.942 38.06 124.074 37.4855 125.07 36.69C126.083 35.9116 126.912 35.0005 127.586 33.9875C128.262 32.9575 128.751 31.9274 129.037 30.8634C129.322 29.7994 129.373 28.8203 129.207 27.9229C129.037 27.0118 128.598 26.2674 127.905 25.7099C127.212 25.1354 126.216 24.8668 124.914 24.8668H121.688V38.4305H121.691Z" fill="white"/>
<path d="M149.003 24.2577C151.028 24.4276 152.956 25.3387 154.407 26.7562C156.858 29.0712 157.446 33.0248 157.463 36.2169C157.446 38.8174 157.143 40.9455 156.569 42.601C155.995 44.2565 155.267 45.5585 154.373 46.4865C152.888 48.0231 151.096 49.0021 148.952 49.2231C148.143 49.3081 147.568 49.3591 147.211 49.3591C146.841 49.3591 146.266 49.3081 145.454 49.2231C143.326 49.0021 141.433 47.9891 139.947 46.4695C139.053 45.5415 138.309 44.2395 137.718 42.567C137.126 40.8945 136.824 38.7494 136.807 36.1489C136.824 32.9058 137.432 29.0713 139.913 26.7392C141.399 25.3387 143.36 24.4242 145.42 24.2577C146.232 24.1897 146.837 24.1387 147.211 24.1387C147.599 24.1387 148.19 24.1897 149.003 24.2577ZM150.369 46.8231C152.245 44.0186 152.616 39.5755 152.65 36.2814C152.667 34.1874 152.48 32.2769 152.126 30.5704C151.586 27.9868 150.301 24.8594 147.211 24.8594C142.245 24.8594 141.518 32.4605 141.518 36.0571C141.518 39.7727 142.395 48.4378 147.211 48.6248C148.53 48.5976 149.577 47.9891 150.369 46.8231Z" fill="white"/>
<path d="M166.614 46.6399C166.393 47.3504 166.005 47.9759 165.414 48.5164C164.822 49.0569 163.979 49.3425 162.899 49.3765C161.226 49.4615 159.941 49.2745 159.013 48.819C158.085 48.3465 157.545 47.1805 157.375 45.321H161.495C161.444 46.7725 161.648 47.755 162.12 48.2615C162.593 48.768 163.065 48.87 163.521 48.598C163.976 48.3125 164.146 47.687 164.061 46.7555C163.959 45.8105 163.317 44.6105 162.137 43.1589L162.12 24.0541L166.899 24.0371L166.933 44.7974C166.954 45.321 166.835 45.9465 166.614 46.6399Z" fill="white"/>
<path d="M176.377 24.1738H184.147C185.853 24.2078 186.781 24.7993 186.849 26.5908C186.883 27.4509 186.547 28.0424 185.853 28.3653C185.7 28.4333 185.517 28.4673 185.33 28.4673C184.67 28.4673 183.776 28.0458 182.696 27.1653C181.295 26.0333 179.772 25.3738 178.134 25.1902C176.53 25.0203 175.466 24.9217 174.925 24.9217L174.891 36.3744H175.534C176.462 36.3744 177.865 36.2214 179.772 35.9359C181.679 35.6503 182.879 35.4973 183.386 35.4803C183.892 35.4803 184.246 35.6843 184.467 36.0718C184.67 36.4594 184.687 36.8809 184.534 37.3398C184.365 37.7953 184.011 38.0163 183.488 37.9993C182.947 37.9823 181.713 37.8293 179.789 37.5778C177.848 37.3228 176.428 37.1902 175.5 37.1393H174.891L174.84 48.6089C175.836 48.6089 177.138 48.507 178.776 48.3234C180.415 48.1364 181.934 47.4973 183.338 46.3653C184.436 45.4883 185.313 45.0463 185.989 45.0463C186.176 45.0463 186.343 45.0803 186.496 45.1483C187.189 45.4679 187.526 46.0594 187.492 46.9228C187.424 48.7143 186.513 49.3228 184.789 49.3568H177.019L170.078 49.3738L170.112 24.1704L176.377 24.1738Z" fill="white"/>
<path d="M202.098 24.4416C203.128 24.7272 204.107 25.2541 205.004 26.0461C205.898 26.8246 206.354 27.8716 206.354 29.1362C206.354 30.0473 205.915 30.5368 205.052 30.5878C204.175 30.6388 203.549 30.3838 203.158 29.8093C202.771 29.2518 202.55 28.3578 202.499 27.1747C202.448 25.9747 201.925 25.2167 200.929 24.9107C199.375 24.6082 197.924 24.9277 196.554 25.8728C195.201 26.8348 194.137 28.2388 193.362 30.0949C192.584 31.9544 192.315 34.0824 192.55 36.496C192.805 39.0966 193.597 41.2586 194.933 42.9651C196.268 44.6716 197.937 45.6337 199.933 45.8376C201.925 46.0416 204.022 45.2121 206.248 43.3051C206.486 43.1351 206.704 43.0841 206.891 43.1521C207.095 43.2371 207.193 43.39 207.176 43.6246C207.091 43.7436 207.023 43.8796 206.921 44.0121C206.432 44.8722 205.653 45.8376 204.555 46.8847C203.475 47.9317 201.836 48.6762 199.674 49.1487C198.036 49.4512 196.381 49.3017 194.725 48.6932C193.07 48.1017 191.619 46.9866 190.368 45.3651C189.1 43.7436 188.257 41.5476 187.835 38.777C187.682 37.832 187.682 36.564 187.852 34.9934C188.005 33.4229 188.444 31.8014 189.171 30.1629C189.882 28.5073 191.013 27.1068 192.567 25.9408C194.103 24.7917 196.18 24.1493 198.801 24.0303C199.953 24.0371 201.051 24.173 202.098 24.4416Z" fill="white"/>
<path d="M219.408 49.3257L219.391 24.6628C219.204 24.6628 218.429 24.7648 217.059 24.9313C215.659 25.2339 214.238 25.9444 212.838 27.0764C211.42 28.2084 210.373 28.5959 209.68 28.2764C208.986 27.9568 208.65 27.3653 208.684 26.5019C208.701 25.6418 208.939 25.0333 209.377 24.6594C209.799 24.3058 210.475 24.1019 211.386 24.0849H219.442V24.0679H224.221V24.0849H232.294C233.205 24.1019 233.881 24.3058 234.303 24.6594C234.724 25.0299 234.962 25.6384 234.996 26.5019C235.03 27.3619 234.694 27.9534 234 28.2764C233.307 28.5959 232.243 28.1744 230.843 26.9914C229.442 25.8084 228.021 25.1149 226.621 24.9313C225.557 24.7444 224.762 24.6628 224.221 24.6628L224.238 49.3427L219.408 49.3257Z" fill="white"/>
<path d="M101.633 61.6046C101.633 61.948 101.385 62.2063 101.052 62.2607V62.2811C101.385 62.3355 101.633 62.5939 101.633 62.9372V64.6369C101.633 65.5038 101.161 65.9661 100.294 65.9661H98.0778C97.986 65.9661 97.9316 65.9117 97.9316 65.8199V58.7287C97.9316 58.6267 97.986 58.5825 98.0778 58.5825H100.294C101.161 58.5825 101.633 59.0448 101.633 59.9117V61.6046ZM100.406 60.1633C100.406 59.9219 100.287 59.7927 100.036 59.7927H99.1961V61.659H100.036C100.277 61.659 100.406 61.5298 100.406 61.2987V60.1633ZM100.406 63.2499C100.406 63.0086 100.287 62.8794 100.036 62.8794H99.1961V64.7457H100.036C100.277 64.7457 100.406 64.6267 100.406 64.3752V63.2499Z" fill="white"/>
<path d="M111.783 59.646C111.783 59.7378 111.745 59.8024 111.637 59.8024H109.329V61.6483H111.093C111.185 61.6483 111.239 61.7027 111.239 61.8047V62.7191C111.239 62.8211 111.185 62.8755 111.093 62.8755H109.329V64.7418H111.637C111.749 64.7418 111.783 64.7894 111.783 64.8879V65.8126C111.783 65.9044 111.745 65.9588 111.637 65.9588H108.241C108.156 65.9588 108.102 65.9044 108.102 65.8126V58.7214C108.102 58.6296 108.156 58.5752 108.241 58.5752H111.637C111.749 58.5752 111.783 58.6296 111.783 58.7214V59.646Z" fill="white"/>
<path d="M121.447 65.9622C121.366 65.9622 121.318 65.9146 121.301 65.833L121.043 64.4834H119.401L119.153 65.833C119.132 65.9146 119.088 65.9622 119.007 65.9622H118.017C117.915 65.9622 117.871 65.9078 117.898 65.8058L119.431 58.7078C119.452 58.616 119.506 58.5786 119.588 58.5786H120.869C120.951 58.5786 121.009 58.616 121.026 58.7078L122.559 65.8058C122.576 65.9078 122.542 65.9622 122.429 65.9622H121.447ZM120.217 60.1933L119.625 63.416H120.808L120.217 60.1933Z" fill="white"/>
<path d="M132.252 58.5752C132.354 58.5752 132.436 58.6568 132.436 58.7588V64.6296C132.436 65.4964 131.973 65.9588 131.107 65.9588H130.073C129.206 65.9588 128.744 65.4964 128.744 64.6296V58.7588C128.744 58.6568 128.826 58.5752 128.928 58.5752H129.815C129.917 58.5752 129.998 58.6568 129.998 58.7588V64.3712C129.998 64.6194 130.128 64.7418 130.369 64.7418H130.848C131.09 64.7418 131.219 64.6228 131.219 64.3712V58.7588C131.219 58.6568 131.3 58.5752 131.402 58.5752H132.252Z" fill="white"/>
<path d="M142.263 58.5752C142.365 58.5752 142.409 58.6296 142.409 58.7214V59.646C142.409 59.7378 142.361 59.7922 142.263 59.7922H141.192V65.8126C141.192 65.9146 141.144 65.9588 141.046 65.9588H140.084C139.992 65.9588 139.938 65.9112 139.938 65.8126V59.7956H138.867C138.775 59.7956 138.721 59.7412 138.721 59.6494V58.7248C138.721 58.633 138.775 58.5786 138.867 58.5786H142.263V58.5752Z" fill="white"/>
<path d="M152.83 58.5752C152.97 58.5752 153.034 58.6568 152.976 58.786L151.287 62.8959V65.7752C151.287 65.8942 151.223 65.9588 151.104 65.9588H150.216C150.097 65.9588 150.033 65.8942 150.033 65.7752V62.8959L148.343 58.786C148.289 58.6568 148.354 58.5752 148.49 58.5752H149.414C149.526 58.5752 149.591 58.6228 149.625 58.7214L150.658 61.3695L151.692 58.7214C151.729 58.6194 151.794 58.5752 151.902 58.5752H152.83Z" fill="white"/>
<path d="M170.51 65.9622C170.428 65.9622 170.38 65.9146 170.363 65.833L170.105 64.4834H168.463L168.215 65.833C168.195 65.9146 168.151 65.9622 168.069 65.9622H167.08C166.978 65.9622 166.934 65.9078 166.961 65.8058L168.494 58.7078C168.514 58.616 168.569 58.5786 168.65 58.5786H169.932C170.013 58.5786 170.071 58.616 170.088 58.7078L171.621 65.8058C171.638 65.9078 171.604 65.9622 171.492 65.9622H170.51ZM169.283 60.1933L168.691 63.416H169.874L169.283 60.1933Z" fill="white"/>
<path d="M181.508 60.9038C181.508 60.9956 181.454 61.05 181.362 61.05H180.438C180.336 61.05 180.291 60.9956 180.291 60.9038V60.1661C180.291 59.9248 180.162 59.7956 179.921 59.7956H179.442C179.193 59.7956 179.071 59.9248 179.071 60.1661V64.3746C179.071 64.6228 179.2 64.7452 179.442 64.7452H179.921C180.162 64.7452 180.291 64.6262 180.291 64.3746V63.637C180.291 63.5452 180.339 63.4908 180.438 63.4908H181.362C181.454 63.4908 181.508 63.5452 181.508 63.637V64.633C181.508 65.4998 181.036 65.9622 180.179 65.9622H179.146C178.279 65.9622 177.807 65.4998 177.807 64.633V59.9044C177.807 59.0375 178.279 58.5752 179.146 58.5752H180.179C181.039 58.5752 181.508 59.0375 181.508 59.9044V60.9038Z" fill="white"/>
<path d="M191.355 65.9622C191.274 65.9622 191.226 65.9146 191.209 65.833L190.951 64.4834H189.309L189.061 65.833C189.041 65.9146 188.996 65.9622 188.915 65.9622H187.926C187.824 65.9622 187.78 65.9078 187.807 65.8058L189.34 58.7078C189.36 58.616 189.414 58.5786 189.496 58.5786H190.778C190.859 58.5786 190.917 58.616 190.934 58.7078L192.467 65.8058C192.484 65.9078 192.45 65.9622 192.338 65.9622H191.355ZM190.128 60.1933L189.537 63.416H190.72L190.128 60.1933Z" fill="white"/>
<path d="M198.654 58.7248C198.654 58.633 198.702 58.5786 198.8 58.5786H201.017C201.883 58.5786 202.346 59.0511 202.346 59.918V64.6364C202.346 65.5033 201.883 65.9656 201.017 65.9656H198.8C198.698 65.9656 198.654 65.918 198.654 65.8194V58.7248ZM200.758 64.7452C201 64.7452 201.129 64.6262 201.129 64.3746V60.1729C201.129 59.9248 201 59.7956 200.758 59.7956H199.909V64.7452H200.758Z" fill="white"/>
<path d="M212.498 59.646C212.498 59.7378 212.46 59.8024 212.351 59.8024H210.043V61.6483H211.808C211.899 61.6483 211.954 61.7027 211.954 61.8047V62.7191C211.954 62.8211 211.899 62.8755 211.808 62.8755H210.043V64.7418H212.351C212.464 64.7418 212.498 64.7894 212.498 64.8879V65.8126C212.498 65.9044 212.46 65.9588 212.351 65.9588H208.956C208.874 65.9588 208.816 65.9044 208.816 65.8126V58.7214C208.816 58.6296 208.871 58.5752 208.956 58.5752H212.351C212.464 58.5752 212.498 58.6296 212.498 58.7214V59.646Z" fill="white"/>
<path d="M223.949 58.5752C224.068 58.5752 224.133 58.6398 224.133 58.7588V65.7752C224.133 65.8942 224.068 65.9588 223.949 65.9588H223.089C222.97 65.9588 222.906 65.8942 222.906 65.7752V61.6211H222.841L221.927 65.7956C221.9 65.9078 221.835 65.9622 221.723 65.9622H221.271C221.159 65.9622 221.094 65.9078 221.067 65.7956L220.153 61.6211H220.088V65.7752C220.088 65.8942 220.023 65.9588 219.904 65.9588H219.055C218.936 65.9588 218.871 65.8942 218.871 65.7752V58.7588C218.871 58.6398 218.936 58.5752 219.055 58.5752H220.275C220.387 58.5752 220.452 58.6296 220.479 58.7418L221.502 63.3378L222.529 58.7418C222.556 58.6296 222.62 58.5752 222.732 58.5752H223.949Z" fill="white"/>
<path d="M234.834 58.5752C234.974 58.5752 235.038 58.6568 234.98 58.786L233.291 62.8959V65.7752C233.291 65.8942 233.226 65.9588 233.107 65.9588H232.22C232.101 65.9588 232.037 65.8942 232.037 65.7752V62.8959L230.347 58.786C230.293 58.6568 230.358 58.5752 230.494 58.5752H231.418C231.53 58.5752 231.595 58.6228 231.629 58.7214L232.662 61.3695L233.696 58.7214C233.733 58.6194 233.797 58.5752 233.906 58.5752H234.834Z" fill="white"/>
</g>
<defs>
<clipPath id="clip0_4480_12408">
<rect width="235" height="90" fill="white"/>
</clipPath>
</defs>
</svg>
