<svg width="242" height="337" viewBox="0 0 242 337" fill="none" xmlns="http://www.w3.org/2000/svg">
<path d="M14.4946 287.837V294.406H24.7217C25.1826 294.406 25.5283 294.483 25.7588 294.636C26.2581 294.982 26.7767 295.395 27.3145 295.875C27.8522 296.355 28.4188 296.931 29.0142 297.604C29.2062 297.853 29.3022 298.055 29.3022 298.208C29.3022 298.381 29.2062 298.573 29.0142 298.785C28.4188 299.457 27.8522 300.033 27.3145 300.513C26.7767 300.993 26.2581 301.406 25.7588 301.752C25.4899 301.906 25.1442 301.982 24.7217 301.982H14.4946V316.473C14.4946 317.049 14.3698 317.453 14.1201 317.683C13.8896 317.894 13.4863 318 12.9102 318H6.77393C6.19775 318 5.78483 317.894 5.53516 317.683C5.30469 317.453 5.18945 317.049 5.18945 316.473V284.409C5.18945 282.489 5.3623 280.971 5.70801 279.857C6.07292 278.724 6.76432 277.918 7.78223 277.438C8.81934 276.938 10.327 276.688 12.3052 276.688H25.9028C26.3638 276.688 26.7095 276.765 26.9399 276.919C27.4393 277.265 27.9578 277.678 28.4956 278.158C29.0334 278.638 29.5999 279.214 30.1953 279.886C30.3874 280.136 30.4834 280.338 30.4834 280.491C30.4834 280.664 30.3874 280.856 30.1953 281.067C29.5999 281.74 29.0334 282.316 28.4956 282.796C27.9578 283.276 27.4393 283.689 26.9399 284.035C26.6711 284.188 26.3254 284.265 25.9028 284.265H17.7788C16.5112 284.265 15.647 284.534 15.186 285.072C14.7251 285.61 14.4946 286.531 14.4946 287.837ZM48.4023 318.72C43.5625 318.72 39.731 317.433 36.9077 314.86C34.0845 312.286 32.6729 308.455 32.6729 303.365C32.6729 298.141 34.1325 294.243 37.0518 291.669C39.9902 289.076 43.9082 287.78 48.8057 287.78C53.5303 287.78 57.3138 289.057 60.1562 291.611C62.9987 294.146 64.4199 297.892 64.4199 302.847C64.4199 308.013 62.9987 311.95 60.1562 314.658C57.3138 317.366 53.3958 318.72 48.4023 318.72ZM48.6904 311.749C50.8031 311.749 52.3971 311.096 53.4727 309.79C54.5482 308.464 55.0859 306.208 55.0859 303.02C55.0859 299.985 54.5386 297.853 53.4438 296.624C52.3683 295.376 50.7646 294.751 48.6328 294.751C46.5778 294.751 44.9549 295.424 43.7642 296.768C42.5926 298.093 42.0068 300.254 42.0068 303.25C42.0068 306.381 42.5638 308.58 43.6777 309.847C44.8109 311.115 46.4818 311.749 48.6904 311.749ZM84.7588 318.72C79.9189 318.72 76.0874 317.433 73.2642 314.86C70.4409 312.286 69.0293 308.455 69.0293 303.365C69.0293 298.141 70.4889 294.243 73.4082 291.669C76.3467 289.076 80.2646 287.78 85.1621 287.78C89.8867 287.78 93.6702 289.057 96.5127 291.611C99.3551 294.146 100.776 297.892 100.776 302.847C100.776 308.013 99.3551 311.95 96.5127 314.658C93.6702 317.366 89.7523 318.72 84.7588 318.72ZM85.0469 311.749C87.1595 311.749 88.7536 311.096 89.8291 309.79C90.9046 308.464 91.4424 306.208 91.4424 303.02C91.4424 299.985 90.895 297.853 89.8003 296.624C88.7248 295.376 87.1211 294.751 84.9893 294.751C82.9342 294.751 81.3114 295.424 80.1206 296.768C78.9491 298.093 78.3633 300.254 78.3633 303.25C78.3633 306.381 78.9202 308.58 80.0342 309.847C81.1673 311.115 82.8382 311.749 85.0469 311.749ZM117.399 318.72C114.845 318.72 112.665 318.096 110.859 316.848C109.073 315.58 107.71 313.842 106.769 311.633C105.847 309.405 105.386 306.841 105.386 303.941C105.386 300.119 106.058 297.027 107.402 294.665C108.766 292.284 110.677 290.536 113.135 289.422C115.613 288.308 118.532 287.751 121.893 287.751C123.045 287.751 123.996 287.809 124.745 287.924C125.513 288.039 126.061 288.145 126.387 288.241V277.495C126.387 277.034 126.483 276.679 126.675 276.429C127.482 275.373 128.663 274.23 130.219 273.001C130.488 272.809 130.728 272.713 130.939 272.713C131.189 272.713 131.429 272.809 131.659 273.001C132.485 273.635 133.176 274.23 133.733 274.787C134.31 275.344 134.799 275.891 135.203 276.429C135.395 276.679 135.491 277.034 135.491 277.495V316.675C135.491 317.04 135.366 317.357 135.116 317.625C134.867 317.875 134.55 318 134.166 318H129.873C129.566 318 129.287 317.962 129.038 317.885C128.807 317.789 128.586 317.616 128.375 317.366L126.589 315.062H126.387C126.138 315.446 125.686 315.935 125.033 316.531C124.399 317.107 123.468 317.616 122.239 318.058C121.029 318.499 119.416 318.72 117.399 318.72ZM120.193 311.345C121.922 311.345 123.276 311.019 124.255 310.366C125.254 309.713 125.965 308.887 126.387 307.888V295.817C126.08 295.625 125.571 295.395 124.86 295.126C124.15 294.857 123.151 294.723 121.864 294.723C119.483 294.723 117.697 295.5 116.506 297.056C115.315 298.612 114.72 300.705 114.72 303.336C114.72 306.064 115.219 308.08 116.218 309.386C117.216 310.692 118.542 311.345 120.193 311.345ZM153.41 318.72C150.855 318.72 148.675 318.096 146.87 316.848C145.084 315.58 143.72 313.842 142.779 311.633C141.857 309.405 141.396 306.841 141.396 303.941C141.396 300.119 142.069 297.027 143.413 294.665C144.777 292.284 146.688 290.536 149.146 289.422C151.624 288.308 154.543 287.751 157.904 287.751C159.056 287.751 160.007 287.809 160.756 287.924C161.524 288.039 162.071 288.145 162.398 288.241V277.495C162.398 277.034 162.494 276.679 162.686 276.429C163.493 275.373 164.674 274.23 166.229 273.001C166.498 272.809 166.738 272.713 166.95 272.713C167.199 272.713 167.439 272.809 167.67 273.001C168.496 273.635 169.187 274.23 169.744 274.787C170.32 275.344 170.81 275.891 171.213 276.429C171.405 276.679 171.501 277.034 171.501 277.495V316.675C171.501 317.04 171.377 317.357 171.127 317.625C170.877 317.875 170.56 318 170.176 318H165.884C165.576 318 165.298 317.962 165.048 317.885C164.818 317.789 164.597 317.616 164.386 317.366L162.6 315.062H162.398C162.148 315.446 161.697 315.935 161.044 316.531C160.41 317.107 159.479 317.616 158.25 318.058C157.04 318.499 155.426 318.72 153.41 318.72ZM156.204 311.345C157.933 311.345 159.287 311.019 160.266 310.366C161.265 309.713 161.975 308.887 162.398 307.888V295.817C162.091 295.625 161.582 295.395 160.871 295.126C160.16 294.857 159.162 294.723 157.875 294.723C155.493 294.723 153.707 295.5 152.517 297.056C151.326 298.612 150.73 300.705 150.73 303.336C150.73 306.064 151.23 308.08 152.229 309.386C153.227 310.692 154.552 311.345 156.204 311.345ZM193.742 318.72C190.496 318.72 187.673 318.202 185.272 317.165C182.871 316.108 181.008 314.476 179.683 312.267C178.358 310.058 177.695 307.206 177.695 303.711C177.695 298.468 179.04 294.502 181.729 291.813C184.417 289.124 187.99 287.78 192.445 287.78C195.345 287.78 197.794 288.298 199.792 289.335C201.808 290.373 203.335 291.803 204.372 293.628C205.428 295.452 205.957 297.536 205.957 299.879C205.957 302.165 205.371 303.759 204.199 304.662C203.028 305.564 201.318 306.016 199.071 306.016H186.712C186.866 307.994 187.586 309.501 188.873 310.539C190.179 311.576 191.946 312.094 194.174 312.094C195.941 312.094 197.352 311.835 198.409 311.316C199.484 310.779 200.233 310.356 200.656 310.049C201.021 309.78 201.434 309.655 201.895 309.674C202.259 309.674 202.778 309.751 203.45 309.905C204.142 310.039 204.823 310.299 205.496 310.683C205.976 310.932 206.216 311.278 206.216 311.72C206.216 311.969 206.168 312.325 206.072 312.786C206.014 313.055 205.918 313.448 205.784 313.967C205.649 314.466 205.476 314.937 205.265 315.378C205.15 315.59 204.967 315.791 204.718 315.983C204.334 316.252 203.709 316.608 202.845 317.049C202 317.491 200.838 317.875 199.359 318.202C197.881 318.547 196.008 318.72 193.742 318.72ZM186.655 300.11H196.046C197.026 300.11 197.516 299.659 197.516 298.756C197.516 297.392 197.083 296.25 196.219 295.328C195.374 294.387 194.097 293.916 192.388 293.916C190.525 293.916 189.152 294.511 188.268 295.702C187.404 296.893 186.866 298.362 186.655 300.11ZM226.756 318.72C223.511 318.72 220.687 318.202 218.287 317.165C215.886 316.108 214.023 314.476 212.698 312.267C211.373 310.058 210.71 307.206 210.71 303.711C210.71 298.468 212.054 294.502 214.743 291.813C217.432 289.124 221.004 287.78 225.46 287.78C228.36 287.78 230.809 288.298 232.806 289.335C234.823 290.373 236.35 291.803 237.387 293.628C238.443 295.452 238.971 297.536 238.971 299.879C238.971 302.165 238.385 303.759 237.214 304.662C236.042 305.564 234.333 306.016 232.086 306.016H219.727C219.881 307.994 220.601 309.501 221.888 310.539C223.194 311.576 224.961 312.094 227.188 312.094C228.955 312.094 230.367 311.835 231.423 311.316C232.499 310.779 233.248 310.356 233.67 310.049C234.035 309.78 234.448 309.655 234.909 309.674C235.274 309.674 235.793 309.751 236.465 309.905C237.156 310.039 237.838 310.299 238.51 310.683C238.99 310.932 239.23 311.278 239.23 311.72C239.23 311.969 239.182 312.325 239.086 312.786C239.029 313.055 238.933 313.448 238.798 313.967C238.664 314.466 238.491 314.937 238.28 315.378C238.165 315.59 237.982 315.791 237.732 315.983C237.348 316.252 236.724 316.608 235.86 317.049C235.015 317.491 233.853 317.875 232.374 318.202C230.895 318.547 229.023 318.72 226.756 318.72ZM219.669 300.11H229.061C230.041 300.11 230.53 299.659 230.53 298.756C230.53 297.392 230.098 296.25 229.234 295.328C228.389 294.387 227.112 293.916 225.402 293.916C223.539 293.916 222.166 294.511 221.283 295.702C220.418 296.893 219.881 298.362 219.669 300.11Z" fill="#F5F5F5"/>
<path d="M0.580078 326.527H241.42V329.956H0.580078V326.527Z" fill="#F5F5F5"/>
<path d="M117.393 20.2512C111.847 27.3517 106.428 36.8022 104.141 43.3026C100.881 52.6032 100.839 60.4537 104.014 66.8541C105.665 70.2043 109.942 74.5045 114.218 77.1547C123.743 83.055 127.808 90.1055 127.3 100.006C126.961 107.357 123.405 115.707 117.223 123.708C115.742 125.658 114.81 127.008 115.149 126.758C116.588 125.808 122.897 119.257 125.225 116.307C140.848 96.5559 141.059 79.2548 125.733 65.504C121.627 61.8038 119.383 58.7536 117.477 54.2533C115.445 49.503 114.726 45.6528 114.726 40.0024C114.726 33.252 116.334 26.0516 119.425 18.8511C119.891 17.8511 120.145 17.001 120.06 17.001C119.975 17.001 118.748 18.4511 117.393 20.2512Z" fill="#F5F5F5"/>
<path d="M73.9551 48.6029C68.1972 56.4034 64.3446 64.2539 63.2438 70.5543C61.7197 79.2048 64.5563 85.3052 72.558 90.4555C84.2853 98.0059 85.1744 110.407 74.9712 124.058C72.0499 127.958 73.32 127.158 77.7231 122.307C84.1159 115.307 88.0533 107.957 89.027 101.206C89.9161 95.0058 87.5876 88.6054 82.6342 83.5551C77.5114 78.4548 76.2413 76.8547 75.0135 74.1045C71.5842 66.504 71.6265 58.9536 75.0982 49.453C75.8602 47.3029 76.453 45.5028 76.4106 45.5028C76.3259 45.5028 75.2252 46.9028 73.9551 48.6029Z" fill="#F5F5F5"/>
<path d="M160.704 48.603C154.099 57.3035 149.4 68.1041 149.442 74.5045C149.484 81.5049 152.067 85.5052 160.153 91.0555C163.498 93.3557 166.292 96.6559 167.604 100.006C168.917 103.356 169.044 108.307 167.901 112.357C167.012 115.557 163.667 121.657 160.958 125.158L158.968 127.708L161.677 125.258C164.937 122.257 169.256 116.807 171.542 112.857C175.013 106.806 176.495 100.706 175.733 95.7558C174.886 90.3555 172.643 86.7053 165.742 79.7048C158.46 72.3044 157.19 60.0536 162.397 47.9029C162.947 46.5528 163.328 45.5028 163.244 45.5028C163.159 45.5028 161.974 46.9029 160.704 48.603Z" fill="#F5F5F5"/>
<path d="M23.2777 134.758C21.7536 139.558 20.3988 148.659 20.2295 155.759L20.1024 160.26H119.383H218.663L218.536 155.509C218.367 149.659 217.52 143.059 216.25 137.758L215.276 133.758L119.467 133.608L23.7011 133.508L23.2777 134.758Z" fill="#F5F5F5"/>
<path d="M20.5258 167.36C20.6528 168.41 20.8645 169.76 20.9915 170.36L21.1609 171.51H119.383H217.604L217.774 170.36C217.901 169.76 218.112 168.41 218.24 167.36L218.494 165.51H119.383H20.2718L20.5258 167.36Z" fill="#F5F5F5"/>
<path d="M22.431 177.561C22.431 177.861 23.1084 180.211 23.9551 182.711C25.6486 187.711 27.9771 192.712 30.6443 197.112L32.3802 199.962H119.383H206.385L208.121 197.112C210.788 192.712 213.117 187.711 214.81 182.711C215.657 180.211 216.334 177.861 216.334 177.561C216.334 177.161 190.974 177.011 119.383 177.011C47.7908 177.011 22.431 177.161 22.431 177.561Z" fill="#F5F5F5"/>
<path d="M36.4022 205.212C36.4022 205.812 43.9382 213.013 47.6215 215.963C52.7019 220.013 56.7663 222.663 62.6511 225.714L67.0118 228.014H119.383H171.753L175.733 225.964C184.158 221.663 192.541 215.513 198.891 209.013C200.797 207.013 202.363 205.312 202.363 205.212C202.363 205.112 165.022 205.012 119.383 205.012C73.7434 205.012 36.4022 205.112 36.4022 205.212Z" fill="#F5F5F5"/>
<path d="M82.1261 234.964C82.6765 237.314 83.3539 238.464 84.6663 239.264C86.5292 240.415 152.236 240.415 154.099 239.264C155.411 238.464 156.089 237.314 156.639 234.964L157.02 233.514H119.383H81.7451L82.1261 234.964Z" fill="#F5F5F5"/>
</svg>
